<svg id="svg" version="1.1" xmlns="http://www.w3.org/2000/svg" xmlns:xlink="http://www.w3.org/1999/xlink" width="400" height="400" viewBox="0, 0, 400,400"><g id="svgg"><path id="path0" d="M188.281 155.200 C 182.001 157.014,178.905 160.664,178.610 166.602 C 178.267 173.502,180.822 175.836,192.356 179.161 C 199.610 181.252,201.551 183.308,199.747 186.991 C 197.261 192.069,186.325 191.068,185.312 185.669 L 185.069 184.375 181.349 184.375 L 177.628 184.375 177.869 186.130 C 179.510 198.104,201.190 200.594,206.834 189.457 C 210.899 181.436,207.353 176.430,194.810 172.483 C 186.821 169.970,184.986 167.986,186.906 163.939 C 189.089 159.339,200.000 160.443,200.000 165.264 C 200.000 165.956,200.312 166.016,203.906 166.016 C 208.300 166.016,208.158 166.149,207.197 162.913 C 205.373 156.771,196.031 152.962,188.281 155.200 M294.922 175.391 L 294.922 195.703 298.633 195.703 L 302.344 195.703 302.344 190.902 L 302.344 186.100 304.059 184.416 L 305.775 182.733 309.626 189.207 L 313.477 195.680 317.648 195.692 L 321.820 195.703 316.357 186.890 C 313.353 182.043,310.819 177.868,310.726 177.613 C 310.633 177.357,313.013 174.688,316.015 171.680 L 321.474 166.211 317.480 166.099 L 313.486 165.986 307.915 171.594 L 302.344 177.202 302.344 166.140 L 302.344 155.078 298.633 155.078 L 294.922 155.078 294.922 175.391 M214.453 162.500 L 214.453 166.016 212.305 166.016 L 210.156 166.016 210.156 169.141 L 210.156 172.266 212.305 172.266 L 214.453 172.266 214.453 180.593 C 214.453 191.651,214.903 193.175,218.750 195.137 C 220.338 195.948,225.201 196.322,227.537 195.813 L 229.098 195.474 229.100 192.366 C 229.101 189.455,229.052 189.270,228.320 189.448 C 222.724 190.808,221.875 189.545,221.875 179.861 L 221.875 172.266 225.488 172.266 L 229.102 172.266 229.031 169.239 L 228.961 166.211 225.418 166.099 L 221.875 165.986 221.875 162.485 L 221.875 158.984 218.164 158.984 L 214.453 158.984 214.453 162.500 M241.992 166.149 C 228.623 169.624,226.851 189.488,239.399 195.232 C 249.950 200.063,260.352 193.122,260.352 181.250 C 260.352 170.286,252.122 163.517,241.992 166.149 M273.828 166.219 C 259.883 170.068,260.002 191.929,273.990 195.918 C 281.637 198.099,289.471 194.036,291.162 187.012 L 291.421 185.938 287.800 185.946 L 284.180 185.954 283.594 187.212 C 281.203 192.341,273.130 190.836,271.525 184.961 C 269.482 177.482,273.903 170.607,279.688 172.266 C 281.112 172.674,283.594 174.835,283.594 175.666 C 283.594 176.177,285.552 176.102,289.534 175.437 L 290.981 175.195 290.203 173.460 C 287.502 167.442,280.545 164.365,273.828 166.219 M249.745 172.955 C 252.467 174.541,253.974 180.569,252.767 185.041 C 250.910 191.917,241.466 192.194,239.222 185.438 C 236.329 176.729,242.881 168.957,249.745 172.955 M193.164 203.135 C 173.467 206.625,171.415 237.874,190.514 243.491 C 204.705 247.665,215.786 238.966,215.811 223.633 C 215.834 209.599,206.150 200.834,193.164 203.135 M299.609 223.438 L 299.609 243.750 303.320 243.750 L 307.031 243.750 307.031 223.438 L 307.031 203.125 303.320 203.125 L 299.609 203.125 299.609 223.438 M200.430 210.217 C 210.262 213.558,211.013 232.499,201.482 236.748 C 192.762 240.636,185.742 234.786,185.742 223.633 C 185.742 213.012,191.955 207.337,200.430 210.217 M233.464 214.232 C 231.231 214.832,229.816 215.807,228.613 217.574 L 227.734 218.866 227.734 216.686 L 227.734 214.507 224.023 214.382 L 220.311 214.258 220.312 229.004 L 220.313 243.750 223.997 243.750 L 227.681 243.750 227.805 235.059 C 227.971 223.508,228.766 221.967,234.932 221.242 L 237.109 220.986 237.109 217.329 C 237.109 213.163,237.189 213.231,233.464 214.232 M248.956 214.055 C 244.482 215.008,240.850 218.315,240.046 222.168 L 239.782 223.438 243.438 223.438 L 247.094 223.438 247.540 222.257 C 248.582 219.496,253.792 218.784,256.335 221.056 C 257.557 222.148,258.639 227.119,257.501 226.416 C 256.834 226.004,247.274 226.867,245.014 227.543 C 237.138 229.900,236.627 240.090,244.220 243.356 C 248.252 245.091,254.142 244.328,256.929 241.710 L 257.813 240.879 257.813 242.315 L 257.813 243.750 261.551 243.750 L 265.290 243.750 265.135 233.105 C 264.959 221.104,264.843 220.484,262.236 217.585 C 259.406 214.437,253.960 212.990,248.956 214.055 M279.269 214.206 C 270.568 216.552,266.250 227.382,270.415 236.415 C 275.288 246.986,291.757 246.980,295.714 236.405 C 296.671 233.846,296.993 234.143,292.911 233.824 L 289.534 233.560 288.810 235.016 C 286.447 239.771,279.258 239.102,277.267 233.943 C 276.506 231.971,276.351 227.143,276.977 224.892 C 278.568 219.163,285.991 218.338,288.868 223.570 C 289.231 224.230,289.503 224.249,292.579 223.828 C 296.625 223.274,296.413 223.512,295.150 220.930 C 292.420 215.351,285.652 212.485,279.269 214.206 M321.457 214.181 C 309.155 217.669,307.381 237.496,318.887 242.901 C 326.003 246.244,334.465 243.794,337.711 237.451 L 338.636 235.643 337.189 235.404 C 333.947 234.868,331.805 235.097,331.292 236.035 C 328.477 241.183,319.729 238.778,318.886 232.624 L 318.644 230.859 328.853 230.859 L 339.063 230.859 339.063 228.925 C 339.063 218.739,330.544 211.605,321.457 214.181 M329.338 220.917 C 330.645 222.146,331.641 224.075,331.641 225.378 C 331.641 226.144,331.414 226.172,325.195 226.172 C 318.143 226.172,318.368 226.261,319.194 223.789 C 320.587 219.620,326.254 218.016,329.338 220.917 M257.813 232.916 C 257.813 238.248,249.267 241.579,246.906 237.168 C 244.990 233.586,247.951 231.435,254.980 231.303 L 257.813 231.250 257.813 232.916 " stroke="none" fill="#0557da" fill-rule="evenodd"></path><path id="path1" d="M98.285 136.716 C 54.866 142.194,35.013 194.086,63.354 228.017 C 65.338 230.393,71.879 236.468,72.938 236.920 C 72.985 236.940,72.069 237.982,70.902 239.237 C 65.348 245.205,62.834 253.654,65.727 256.632 C 73.878 265.025,130.702 265.818,142.836 257.709 C 147.213 254.784,145.359 245.825,138.950 238.938 L 136.914 236.750 138.867 235.188 C 155.064 222.233,162.635 199.823,157.816 179.102 C 151.561 152.211,125.055 133.339,98.285 136.716 M113.897 142.741 C 152.441 150.457,167.096 198.276,139.684 226.883 C 103.504 264.642,42.129 226.546,58.080 176.231 C 65.575 152.588,89.969 137.951,113.897 142.741 M102.600 158.917 C 101.742 159.866,101.777 161.829,102.667 162.635 C 104.310 164.121,107.129 162.926,107.129 160.742 C 107.129 158.520,104.073 157.289,102.600 158.917 M126.367 168.439 C 120.579 168.925,118.792 170.288,120.509 172.909 C 121.181 173.934,121.195 173.936,125.142 173.721 L 129.102 173.505 118.359 183.988 L 107.617 194.472 103.711 190.638 C 97.073 184.123,98.779 183.482,84.292 197.941 C 71.760 210.449,71.464 210.826,72.808 212.596 C 74.578 214.927,74.936 214.678,86.702 202.939 L 97.569 192.098 101.743 196.147 C 108.309 202.516,106.695 203.124,121.056 188.869 L 132.617 177.393 133.030 180.541 C 133.566 184.628,135.038 185.821,137.455 184.128 L 138.366 183.490 138.080 177.194 C 137.627 167.196,137.987 167.465,126.367 168.439 M76.780 178.993 C 75.462 180.875,76.638 183.203,78.906 183.203 C 81.175 183.203,82.351 180.875,81.033 178.993 C 80.582 178.349,80.032 178.125,78.906 178.125 C 77.780 178.125,77.231 178.349,76.780 178.993 M125.087 193.186 L 124.219 193.794 124.219 213.094 L 124.219 232.394 126.074 231.602 C 127.095 231.167,129.292 230.014,130.957 229.040 L 133.984 227.270 133.984 210.705 C 133.984 191.057,134.387 192.578,129.188 192.578 C 126.894 192.578,125.703 192.755,125.087 193.186 M109.453 207.109 C 109.106 207.457,108.984 211.207,108.984 221.563 L 108.984 235.547 111.035 235.505 C 112.163 235.482,114.229 235.262,115.625 235.016 L 118.164 234.570 118.267 221.140 C 118.340 211.554,118.243 207.557,117.926 207.175 C 117.343 206.473,110.145 206.417,109.453 207.109 M94.787 215.558 C 94.226 216.179,94.141 217.435,94.141 225.113 L 94.141 233.954 95.605 234.348 C 96.845 234.682,101.899 235.514,102.832 235.539 C 103.696 235.562,103.138 216.069,102.257 215.452 C 100.938 214.528,95.651 214.603,94.787 215.558 M79.066 223.194 C 78.952 223.490,78.914 224.589,78.981 225.636 L 79.102 227.539 81.836 228.984 C 83.340 229.779,85.405 230.780,86.426 231.209 L 88.281 231.988 88.281 227.936 C 88.281 222.661,88.277 222.656,83.163 222.656 C 80.219 222.656,79.222 222.787,79.066 223.194 M134.206 241.473 C 136.680 243.752,140.234 250.539,140.234 252.981 C 140.234 257.741,95.422 259.502,75.973 255.506 C 70.471 254.375,69.404 253.819,69.741 252.252 C 70.501 248.721,73.870 243.089,76.357 241.192 L 77.629 240.222 81.490 242.156 C 96.949 249.898,120.299 249.112,131.445 240.474 C 132.446 239.698,132.175 239.600,134.206 241.473 " stroke="none" fill="#06d9d8" fill-rule="evenodd"></path><path id="path2" d="M0.000 200.000 L 0.000 400.000 200.000 400.000 L 400.000 400.000 400.000 200.000 L 400.000 0.000 200.000 0.000 L 0.000 0.000 0.000 200.000 M112.707 136.903 C 158.268 144.293,175.286 200.266,141.790 232.560 L 137.230 236.956 139.229 239.104 C 144.102 244.339,147.044 253.667,144.662 256.331 C 136.960 264.946,80.105 266.120,67.076 257.933 C 62.408 255.000,64.092 246.566,70.814 239.211 L 72.821 237.015 71.274 235.827 C 26.988 201.818,57.901 128.014,112.707 136.903 M100.000 142.212 C 57.340 146.405,40.144 201.156,72.574 229.533 C 95.197 249.329,128.598 244.949,145.222 220.007 C 168.410 185.217,141.065 138.176,100.000 142.212 M199.031 155.293 C 203.832 156.606,207.813 161.046,207.813 165.088 C 207.813 166.002,207.756 166.015,204.004 166.001 L 200.195 165.987 199.414 164.348 C 196.991 159.263,187.505 160.059,186.497 165.431 C 185.869 168.783,187.547 170.101,195.703 172.657 C 205.925 175.860,208.588 178.520,208.119 185.057 C 207.054 199.894,180.486 201.077,177.820 186.406 L 177.450 184.375 181.288 184.375 L 185.126 184.375 185.539 185.909 C 187.252 192.271,200.000 191.469,200.000 185.000 C 200.000 181.871,198.569 180.928,190.484 178.732 C 181.206 176.213,178.538 173.593,178.528 166.992 C 178.514 157.708,188.023 152.282,199.031 155.293 M302.344 165.800 L 302.344 176.912 307.679 171.464 L 313.014 166.016 317.249 166.016 C 319.579 166.016,321.484 166.145,321.484 166.304 C 321.484 166.462,319.041 169.055,316.054 172.065 L 310.623 177.539 316.249 186.507 C 319.343 191.439,321.875 195.570,321.875 195.686 C 321.876 195.803,319.986 195.867,317.676 195.830 L 313.477 195.761 309.577 189.295 L 305.677 182.829 304.010 184.465 L 302.344 186.100 302.344 191.074 L 302.344 196.047 298.535 195.953 L 294.727 195.858 294.625 175.761 C 294.569 164.708,294.608 155.444,294.710 155.176 C 294.842 154.832,296.002 154.688,298.621 154.688 L 302.344 154.688 302.344 165.800 M105.619 158.254 C 107.851 159.271,107.700 162.626,105.386 163.440 C 102.205 164.558,100.214 159.745,103.250 158.277 C 104.368 157.737,104.482 157.736,105.619 158.254 M221.875 162.500 L 221.875 166.016 225.586 166.016 L 229.297 166.016 229.297 169.141 L 229.297 172.266 225.586 172.266 L 221.875 172.266 221.877 179.004 C 221.880 189.139,223.070 190.986,228.486 189.267 C 229.263 189.021,229.297 189.147,229.297 192.308 L 229.297 195.605 228.076 195.850 C 224.074 196.650,219.147 195.924,217.144 194.239 C 214.703 192.185,214.471 191.056,214.462 181.152 L 214.453 172.266 212.207 172.265 L 209.961 172.264 209.961 169.139 L 209.961 166.015 212.207 166.015 L 214.453 166.016 214.453 162.500 L 214.453 158.984 218.164 158.984 L 221.875 158.984 221.875 162.500 M250.417 166.255 C 257.881 168.471,262.072 175.967,260.547 184.375 C 257.575 200.765,234.263 200.920,231.210 184.570 C 228.914 172.276,238.835 162.816,250.417 166.255 M283.680 166.708 C 288.974 169.050,292.804 175.747,288.867 175.779 C 288.223 175.784,286.816 175.889,285.742 176.012 C 283.873 176.226,283.761 176.184,283.128 175.040 C 281.615 172.302,277.287 171.344,274.569 173.145 C 271.346 175.281,270.151 182.380,272.309 186.573 C 274.711 191.241,282.008 191.447,283.654 186.895 L 284.147 185.531 287.679 185.787 C 291.870 186.092,291.641 185.956,291.086 187.809 C 287.788 198.817,270.580 199.652,265.235 189.063 C 258.482 175.687,270.647 160.943,283.680 166.708 M136.853 168.711 C 138.201 170.059,138.908 182.644,137.710 183.968 C 135.565 186.338,133.168 184.482,132.896 180.240 L 132.705 177.273 120.928 189.027 C 106.495 203.431,108.203 202.763,101.822 196.502 L 97.461 192.223 86.703 202.948 C 75.382 214.233,75.101 214.442,73.134 213.064 C 70.654 211.327,71.124 210.681,84.271 197.760 C 98.883 183.400,97.094 184.108,103.294 190.226 L 107.640 194.514 118.082 184.067 L 128.523 173.620 125.297 173.861 C 120.739 174.202,119.376 173.322,120.086 170.495 C 120.658 168.212,134.845 166.703,136.853 168.711 M242.339 173.010 C 237.221 176.131,237.557 187.186,242.841 189.523 C 249.402 192.425,254.512 186.495,252.753 178.021 C 251.733 173.106,246.395 170.537,242.339 173.010 M80.611 178.544 C 82.563 180.079,81.376 183.594,78.906 183.594 C 77.596 183.594,76.172 182.068,76.172 180.664 C 76.172 179.260,77.596 177.734,78.906 177.734 C 79.278 177.734,80.045 178.099,80.611 178.544 M133.270 193.225 C 133.941 193.832,133.984 194.889,133.984 210.603 L 133.984 227.334 132.494 228.275 C 130.940 229.256,124.778 232.422,124.423 232.422 C 123.764 232.422,124.239 193.387,124.902 193.000 C 126.094 192.306,132.443 192.476,133.270 193.225 M200.826 203.125 C 211.929 205.183,218.318 216.546,215.652 229.492 C 211.597 249.182,183.106 249.750,178.116 230.240 C 173.863 213.611,185.089 200.207,200.826 203.125 M307.031 223.242 L 307.031 243.750 303.320 243.750 L 299.609 243.750 299.609 223.242 L 299.609 202.734 303.320 202.734 L 307.031 202.734 307.031 223.242 M118.267 220.751 L 118.369 234.666 117.204 234.899 C 116.563 235.027,114.847 235.236,113.390 235.364 C 111.934 235.491,110.347 235.675,109.863 235.774 L 108.984 235.952 108.984 221.765 C 108.984 205.101,108.487 206.577,114.055 206.726 L 118.164 206.836 118.267 220.751 M193.055 210.340 C 182.687 213.578,183.004 234.321,193.465 237.138 C 202.087 239.459,207.617 234.182,207.617 223.633 C 207.617 213.029,201.711 207.637,193.055 210.340 M237.500 217.359 L 237.500 221.046 235.645 221.280 C 228.669 222.159,227.734 223.940,227.734 236.347 L 227.734 243.750 223.828 243.750 L 219.922 243.750 219.922 228.906 L 219.922 214.063 223.828 214.063 L 227.734 214.063 227.734 216.202 L 227.734 218.342 229.325 216.616 C 231.073 214.720,233.239 213.751,235.840 213.703 L 237.500 213.672 237.500 217.359 M257.334 214.268 C 260.098 215.089,262.474 217.008,263.867 219.545 L 265.039 221.680 265.159 232.715 L 265.279 243.750 261.546 243.750 L 257.813 243.750 257.813 242.368 L 257.813 240.985 256.934 241.830 C 250.601 247.918,238.914 243.682,238.879 235.288 C 238.854 229.229,242.684 226.825,253.223 226.287 L 257.813 226.053 257.813 224.928 C 257.813 219.803,250.597 217.801,247.852 222.164 L 247.070 223.407 243.457 223.422 C 239.407 223.439,239.244 223.286,240.392 220.538 C 242.674 215.077,250.413 212.213,257.334 214.268 M289.123 214.924 C 291.803 216.155,294.040 218.376,295.292 221.051 C 296.437 223.495,296.467 223.465,292.356 224.017 L 289.008 224.466 288.463 223.412 C 286.232 219.096,279.946 219.191,277.638 223.575 C 276.327 226.066,276.381 231.902,277.739 234.544 C 280.034 239.006,286.872 239.350,288.617 235.091 L 289.258 233.527 292.665 233.680 C 296.766 233.864,296.727 233.834,295.917 236.272 C 292.185 247.507,274.226 247.047,269.894 235.604 C 264.770 222.069,276.714 209.223,289.123 214.924 M329.520 214.322 C 335.460 216.328,338.688 220.864,338.993 227.637 L 339.156 231.250 328.953 231.250 C 321.050 231.250,318.750 231.360,318.752 231.738 C 318.780 237.955,327.315 241.206,330.895 236.364 C 331.775 235.173,331.835 235.156,335.230 235.156 C 339.185 235.156,339.208 235.186,337.516 238.135 C 332.255 247.309,316.684 246.285,312.485 236.489 C 306.970 223.623,317.291 210.192,329.520 214.322 M102.656 215.313 C 102.996 215.652,103.125 218.498,103.125 225.664 L 103.125 235.547 102.051 235.549 C 101.460 235.551,99.438 235.257,97.559 234.897 L 94.141 234.242 94.141 225.012 C 94.141 214.141,93.830 214.844,98.633 214.844 C 100.877 214.844,102.360 215.017,102.656 215.313 M322.461 220.057 C 320.647 220.892,318.750 223.842,318.750 225.830 C 318.750 226.018,321.664 226.172,325.226 226.172 L 331.703 226.172 331.438 224.902 C 330.557 220.686,326.204 218.336,322.461 220.057 M87.812 223.125 C 88.359 223.672,88.482 232.031,87.944 232.031 C 87.758 232.031,85.612 231.021,83.174 229.785 L 78.742 227.539 78.858 225.396 C 78.922 224.218,79.057 223.119,79.158 222.955 C 79.472 222.448,87.289 222.602,87.812 223.125 M251.686 231.632 C 245.157 232.377,244.633 238.854,251.102 238.854 C 254.940 238.854,257.380 236.781,257.721 233.232 L 257.912 231.250 256.007 231.303 C 254.959 231.333,253.015 231.481,251.686 231.632 M75.500 242.227 C 72.459 245.252,68.803 252.803,70.002 253.580 C 79.290 259.596,141.610 258.657,140.070 252.525 C 139.063 248.512,136.055 243.040,133.895 241.290 L 132.545 240.198 128.696 242.175 C 114.278 249.583,95.806 249.609,81.445 242.241 C 79.512 241.249,77.836 240.390,77.721 240.331 C 77.606 240.273,76.607 241.126,75.500 242.227 " stroke="none" fill="#fbfbfc" fill-rule="evenodd"></path><path id="path3" d="M138.867 156.250 C 139.706 157.109,140.481 157.813,140.588 157.813 C 140.696 157.813,140.097 157.109,139.258 156.250 C 138.419 155.391,137.644 154.688,137.537 154.688 C 137.429 154.688,138.028 155.391,138.867 156.250 M294.787 154.980 C 294.687 155.142,295.424 155.222,296.424 155.159 C 299.524 154.965,299.911 154.796,297.386 154.741 C 296.056 154.711,294.886 154.819,294.787 154.980 M309.367 169.824 L 305.664 173.633 309.473 169.930 C 313.010 166.490,313.459 166.016,313.176 166.016 C 313.118 166.016,311.404 167.729,309.367 169.824 M229.027 168.945 C 229.029 170.234,229.102 170.715,229.189 170.013 C 229.276 169.310,229.274 168.256,229.185 167.669 C 229.096 167.082,229.025 167.656,229.027 168.945 M245.219 172.151 C 245.705 172.245,246.408 172.241,246.782 172.143 C 247.155 172.046,246.758 171.969,245.898 171.974 C 245.039 171.978,244.733 172.058,245.219 172.151 M313.464 174.316 L 311.133 176.758 313.574 174.426 C 314.917 173.144,316.016 172.045,316.016 171.985 C 316.016 171.696,315.630 172.049,313.464 174.316 M122.649 179.590 L 118.945 183.398 122.754 179.695 C 126.291 176.256,126.740 175.781,126.457 175.781 C 126.399 175.781,124.685 177.495,122.649 179.590 M294.622 179.297 C 294.622 180.049,294.702 180.356,294.801 179.980 C 294.899 179.604,294.899 178.989,294.801 178.613 C 294.702 178.237,294.622 178.545,294.622 179.297 M100.586 195.313 C 101.425 196.172,102.200 196.875,102.307 196.875 C 102.414 196.875,101.816 196.172,100.977 195.313 C 100.137 194.453,99.363 193.750,99.256 193.750 C 99.148 193.750,99.747 194.453,100.586 195.313 M301.085 203.021 C 302.003 203.103,303.410 203.102,304.210 203.018 C 305.010 202.934,304.258 202.867,302.539 202.868 C 300.820 202.870,300.166 202.938,301.085 203.021 M237.252 217.383 C 237.253 219.531,237.319 220.360,237.398 219.225 C 237.477 218.090,237.476 216.332,237.396 215.319 C 237.316 214.306,237.251 215.234,237.252 217.383 M222.363 214.350 C 223.384 214.430,225.054 214.430,226.074 214.350 C 227.095 214.269,226.260 214.203,224.219 214.203 C 222.178 214.203,221.343 214.269,222.363 214.350 M220.099 229.102 C 220.099 237.266,220.151 240.661,220.214 236.647 C 220.278 232.633,220.278 225.953,220.214 221.803 C 220.151 217.653,220.099 220.938,220.099 229.102 M252.641 226.448 C 253.127 226.542,253.830 226.538,254.204 226.440 C 254.577 226.342,254.180 226.266,253.320 226.270 C 252.461 226.275,252.155 226.355,252.641 226.448 M323.730 231.151 C 326.577 231.218,331.235 231.218,334.082 231.151 C 336.929 231.085,334.600 231.030,328.906 231.030 C 323.213 231.030,320.884 231.085,323.730 231.151 M195.996 237.776 C 196.479 237.869,197.271 237.869,197.754 237.776 C 198.237 237.683,197.842 237.606,196.875 237.606 C 195.908 237.606,195.513 237.683,195.996 237.776 " stroke="none" fill="#9fd7f4" fill-rule="evenodd"></path><path id="path4" d="M143.359 152.930 C 144.088 153.682,144.772 154.297,144.880 154.297 C 144.987 154.297,144.479 153.682,143.750 152.930 C 143.021 152.178,142.337 151.563,142.230 151.563 C 142.122 151.563,142.631 152.178,143.359 152.930 M294.672 158.984 C 294.672 161.025,294.738 161.860,294.818 160.840 C 294.899 159.819,294.899 158.149,294.818 157.129 C 294.738 156.108,294.672 156.943,294.672 158.984 M294.648 169.922 C 294.648 171.104,294.722 171.587,294.811 170.996 C 294.901 170.405,294.901 169.438,294.811 168.848 C 294.722 168.257,294.648 168.740,294.648 169.922 M317.759 170.020 L 315.820 172.070 317.871 170.132 C 319.777 168.331,320.101 167.969,319.810 167.969 C 319.748 167.969,318.825 168.892,317.759 170.020 M294.648 183.594 C 294.648 184.775,294.722 185.259,294.811 184.668 C 294.901 184.077,294.901 183.110,294.811 182.520 C 294.722 181.929,294.648 182.412,294.648 183.594 M294.643 187.695 C 294.646 188.770,294.722 189.163,294.812 188.569 C 294.901 187.975,294.899 187.096,294.806 186.616 C 294.714 186.135,294.640 186.621,294.643 187.695 M294.638 191.406 C 294.638 192.373,294.714 192.769,294.807 192.285 C 294.900 191.802,294.900 191.011,294.807 190.527 C 294.714 190.044,294.638 190.439,294.638 191.406 M298.735 195.979 C 299.221 196.073,299.924 196.069,300.298 195.972 C 300.671 195.874,300.273 195.797,299.414 195.802 C 298.555 195.806,298.249 195.886,298.735 195.979 M77.336 204.590 L 73.633 208.398 77.441 204.695 C 80.979 201.256,81.428 200.781,81.145 200.781 C 81.087 200.781,79.373 202.495,77.336 204.590 M207.919 223.828 C 207.919 224.795,207.995 225.190,208.088 224.707 C 208.181 224.224,208.181 223.433,208.088 222.949 C 207.995 222.466,207.919 222.861,207.919 223.828 M216.106 223.828 C 216.106 224.580,216.187 224.888,216.285 224.512 C 216.383 224.136,216.383 223.521,216.285 223.145 C 216.187 222.769,216.106 223.076,216.106 223.828 " stroke="none" fill="#c9eefa" fill-rule="evenodd"></path></g></svg>